<?xml version="1.0" standalone="no"?><!DOCTYPE svg PUBLIC "-//W3C//DTD SVG 1.1//EN" "http://www.w3.org/Graphics/SVG/1.1/DTD/svg11.dtd"><svg t="1590587824340" class="icon" viewBox="0 0 1024 1024" version="1.1" xmlns="http://www.w3.org/2000/svg" p-id="21879" xmlns:xlink="http://www.w3.org/1999/xlink" width="200" height="200"><defs><style type="text/css"></style></defs><path d="M153.6 240h720c12.8 0 25.6-9.6 25.6-25.6-3.2-12.8-12.8-22.4-28.8-22.4H153.6c-16 0-25.6 9.6-25.6 25.6 0 12.8 9.6 22.4 25.6 22.4z m716.8 246.4H153.6c-16 0-25.6 12.8-25.6 25.6s9.6 25.6 25.6 25.6h720c12.8 0 25.6-9.6 25.6-25.6s-12.8-25.6-28.8-25.6z m0 297.6H153.6c-12.8 0-25.6 9.6-25.6 25.6 0 12.8 9.6 22.4 25.6 22.4h720c12.8 0 25.6-9.6 25.6-25.6-3.2-12.8-12.8-22.4-28.8-22.4z" fill="#e6e6e6" p-id="21880"></path></svg>