<?xml version="1.0" standalone="no"?><!DOCTYPE svg PUBLIC "-//W3C//DTD SVG 1.1//EN" "http://www.w3.org/Graphics/SVG/1.1/DTD/svg11.dtd"><svg t="1590589149330" class="icon" viewBox="0 0 1024 1024" version="1.1" xmlns="http://www.w3.org/2000/svg" p-id="25595" width="16" height="16" xmlns:xlink="http://www.w3.org/1999/xlink"><defs><style type="text/css"></style></defs><path d="M480.653 867.265c-213.16 0-386.612-173.453-386.612-386.612S267.494 94.041 480.653 94.041s386.612 173.453 386.612 386.612-173.453 386.612-386.612 386.612z m0-731.428c-190.171 0-344.816 154.645-344.816 344.816S290.482 825.47 480.653 825.47 825.47 670.824 825.47 480.653 670.824 135.837 480.653 135.837z" p-id="25596" fill="#8a8a8a"></path><path d="M741.878 501.551c-11.494 0-20.898-9.404-20.898-20.898 0-132.702-107.625-240.326-240.327-240.326-11.494 0-20.898-9.405-20.898-20.898s9.404-20.898 20.898-20.898c155.69 0 282.123 126.432 282.123 282.122 0 11.494-9.405 20.898-20.898 20.898zM909.06 929.959c-5.224 0-10.449-2.09-14.628-6.27L724.114 753.372c-8.359-8.359-8.359-21.42 0-29.78 8.36-8.358 21.42-8.358 29.78 0l170.318 170.32c8.36 8.358 8.36 21.42 0 29.779-4.702 4.18-9.926 6.27-15.15 6.27z" p-id="25597" fill="#8a8a8a"></path></svg>